<?xml version="1.0" standalone="no"?>
<!DOCTYPE svg PUBLIC "-//W3C//DTD SVG 20010904//EN"
 "http://www.w3.org/TR/2001/REC-SVG-20010904/DTD/svg10.dtd">
<svg version="1.0" xmlns="http://www.w3.org/2000/svg"
 width="512.000000pt" height="512.000000pt" viewBox="0 0 512.000000 512.000000"
 preserveAspectRatio="xMidYMid meet">
<metadata>
Created by potrace 1.14, written by Peter Selinger 2001-2017
</metadata>
<g transform="translate(0.000000,512.000000) scale(0.100000,-0.100000)"
fill="#000000" stroke="none">
<path d="M4110 4944 c-30 -8 -102 -30 -160 -49 -58 -18 -186 -59 -285 -90 -99
-31 -234 -73 -300 -95 -66 -21 -201 -64 -300 -95 -99 -31 -247 -78 -330 -105
-82 -27 -211 -67 -285 -90 -74 -23 -160 -50 -190 -61 -51 -17 -341 -109 -520
-164 -67 -21 -328 -103 -585 -185 -77 -25 -252 -81 -645 -206 -108 -34 -163
-65 -223 -123 -48 -46 -98 -134 -116 -205 -16 -60 -6 -182 22 -267 22 -70 23
-79 9 -105 -61 -117 -46 -306 32 -409 14 -18 34 -41 43 -51 17 -17 18 -78 19
-1049 1 -568 5 -1054 9 -1081 25 -172 182 -325 358 -350 46 -7 3896 -7 3932 0
197 36 342 185 360 371 2 28 7 532 10 1122 5 1052 5 1073 -15 1124 -22 59 -78
122 -130 147 -32 16 -180 17 -1915 19 -1034 1 -1894 3 -1912 3 -24 0 -31 4
-29 18 2 9 -3 37 -10 61 -15 51 -13 57 18 64 13 2 190 57 393 121 204 65 534
169 735 233 201 63 446 141 545 173 191 63 506 163 745 237 346 107 548 172
895 285 409 134 425 142 425 214 0 41 -81 305 -113 369 -46 91 -133 169 -237
209 -59 23 -180 28 -250 10z"/>
</g>
</svg>
